<?xml version="1.0" encoding="utf-8"?>
<!-- Generator: Adobe Illustrator 16.0.0, SVG Export Plug-In . SVG Version: 6.00 Build 0)  -->
<!DOCTYPE svg PUBLIC "-//W3C//DTD SVG 1.1//EN" "http://www.w3.org/Graphics/SVG/1.1/DTD/svg11.dtd">
<svg version="1.1" id="Layer_1" xmlns="http://www.w3.org/2000/svg" xmlns:xlink="http://www.w3.org/1999/xlink" x="0px" y="0px"
	 width="216px" height="216px" viewBox="0 0 216 216" style="enable-background:new 0 0 216 216;" xml:space="preserve">
<style type="text/css">
<![CDATA[
	.st0{fill:none;stroke:#000000;stroke-width:14;stroke-miterlimit:10;}
]]>
</style>
<g>
	<path d="M68.26,44.19h57.94c11.45,0,20.7,3.25,27.75,9.74c7.04,6.49,10.57,15.62,10.57,27.37c0,10.11-3.14,18.91-9.43,26.4
		c-6.29,7.49-15.9,11.24-28.86,11.24H85.8v54.74H68.26V44.19z M136.29,62c-3.85-1.82-9.13-2.73-15.84-2.73H85.8v44.87h34.65
		c7.82,0,14.16-1.67,19.03-5.02c4.87-3.35,7.31-9.25,7.31-17.72C146.79,71.87,143.29,65.4,136.29,62z"/>
</g>
<circle class="st0" cx="108.11" cy="107.43" r="99.52"/>
<g>
</g>
<g>
</g>
<g>
</g>
<g>
</g>
<g>
</g>
<g>
</g>
</svg>
